<?xml version="1.0" encoding="UTF-8"?>
<!DOCTYPE svg PUBLIC "-//W3C//DTD SVG 1.1//EN" "http://www.w3.org/Graphics/SVG/1.1/DTD/svg11.dtd">
<!-- Creator: CorelDRAW 2020 (64-Bit) -->
<svg xmlns="http://www.w3.org/2000/svg" xml:space="preserve" width="83.7847mm" height="83.7847mm" version="1.1" style="shape-rendering:geometricPrecision; text-rendering:geometricPrecision; image-rendering:optimizeQuality; fill-rule:evenodd; clip-rule:evenodd"
viewBox="0 0 2603.45 2603.45"
 xmlns:xlink="http://www.w3.org/1999/xlink"
 xmlns:xodm="http://www.corel.com/coreldraw/odm/2003">
 <defs>
  <style type="text/css">
   <![CDATA[
    .str0 {stroke:#FEFEFE;stroke-width:21.93;stroke-miterlimit:22.9256}
    .fil3 {fill:none}
    .fil2 {fill:#FEFEFE}
    .fil0 {fill:#AD3335}
    .fil1 {fill:#DAD6C0}
   ]]>
  </style>
 </defs>
 <g id="Capa_x0020_1">
  <metadata id="CorelCorpID_0Corel-Layer"/>
  <g id="_2351328240688">
   <path class="fil0" d="M1298.54 3.54c711.75,0 1288.74,576.99 1288.74,1288.74 0,711.75 -576.99,1288.74 -1288.74,1288.74 -711.75,0 -1288.74,-576.99 -1288.74,-1288.74 0,-711.75 576.99,-1288.74 1288.74,-1288.74zm0 119.19c645.92,0 1169.55,523.63 1169.55,1169.55 0,645.92 -523.63,1169.55 -1169.55,1169.55 -645.92,0 -1169.55,-523.63 -1169.55,-1169.55 0,-645.92 523.63,-1169.55 1169.55,-1169.55z"/>
   <circle class="fil1" cx="1298.54" cy="1292.28" r="1169.55"/>
   <path class="fil0" d="M1109.03 1454.59c-244.59,54.01 -489.18,108.01 -733.77,162.02 -35.54,7.17 -61.3,-4.06 -76.36,-35.39 -1.86,-26.07 -3.72,-52.15 -5.58,-78.22 2.19,-32.76 13.34,-59.12 37.24,-76.36 180.03,-101.81 360.05,-203.62 540.08,-305.42 -1.86,-39.11 -3.73,-78.22 -5.59,-117.33 -3.29,-46.8 12.13,-75.98 50.28,-78.22 21.11,-0.62 42.22,-1.24 63.32,-1.86 23.3,-1.76 54.61,8.44 55.87,35.38l0.47 78.22c12.42,-11.8 31.82,-31.04 44.23,-42.84 1.89,-165.22 -26.16,-443.39 98.71,-564.3 75.19,-82.62 148.91,-74.44 221.62,-5.58 131.73,144.63 100.55,398.26 102.43,582.91 13.97,10.24 27.93,20.49 41.9,30.73 -0.31,-23.9 -0.62,-47.8 -0.93,-71.7 0.51,-23.53 28.76,-41.97 52.15,-42.37l62.39 1.4c36.75,0.06 53.27,22.68 53.08,46.56 -0.31,47.49 -0.62,94.98 -0.93,142.47 183.75,105.84 367.51,211.68 551.26,317.53 27.73,13.34 43.66,35.39 42.83,69.84 -2.17,23.9 -4.35,47.8 -6.52,71.7 -13.81,42.81 -38.95,61.78 -76.36,54.94 -249.86,-58.97 -499.72,-117.95 -749.58,-176.93 -12.73,132.23 -25.45,264.44 -38.17,396.67 95.6,63.94 191.2,127.88 286.8,191.82 17.53,12.19 29.66,29.39 26.07,61.46 -0.31,12.73 -0.62,25.45 -0.93,38.18 -3.14,37.85 -24.17,51.24 -57.73,47.49 -99.95,-23.59 -199.89,-47.18 -299.84,-70.77 -14.04,20.3 -17.73,38.06 -30.46,58.76 -28.73,46.71 -90.06,57.22 -130.73,-4.23 -10.36,-15.66 -19.16,-36.2 -27.84,-61.06 -102.43,27.01 -204.86,54.01 -307.29,81.01 -27.93,2.43 -58.99,-23.38 -60.52,-54.01 0.31,-17.69 0.62,-35.39 0.93,-53.08 5.56,-35.87 20.19,-39.59 44.7,-55.87 93.43,-60.22 186.86,-120.43 280.28,-180.65 -15.84,-130.97 -31.68,-261.95 -47.52,-392.92z"/>
   <path class="fil2" d="M1111.94 1394.72c-7.45,-103.05 -14.9,-206.1 -22.35,-309.15 -237.92,130.37 -475.84,260.73 -713.75,391.1 -17.28,7.32 -26.02,15.65 -24.68,25.14 1.55,21.26 3.1,42.52 4.65,63.78 252.04,-56.96 504.08,-113.91 756.12,-170.87zm81.46 662.1l-28.86 -142.47c-78.84,51.83 -160.71,100.41 -239.55,152.25 -21.43,15.28 -32.91,26.39 -27.7,45.16 3.9,16.39 10.35,22.36 18.63,20.95l277.49 -75.89zm202.25 0l28.87 -142.47c78.84,51.83 160.71,100.41 239.55,152.25 21.43,15.28 32.91,26.39 27.7,45.16 -3.9,16.39 -10.35,22.36 -18.63,20.95l-277.49 -75.89zm-143.03 32.49c15.98,54.16 58.51,93.43 77.29,-6.52 32.59,-158.61 48.42,-296.73 72.64,-445.1 29.8,-277.18 26.07,-455.66 39.11,-683.49 2.64,-120.59 4.35,-196.01 -12.57,-320.32 -88.77,-335.53 -245.98,-158.92 -272.37,9.31 -17.69,117.64 -15.83,198.96 -11.17,322.18 14.28,224.72 17.39,429.89 42.84,674.17 23.32,149.76 29.75,284.17 64.24,449.76zm-265.56 -1021l-54.94 25.6c-0.47,-27.93 -0.93,-55.87 -1.4,-83.81 2.17,-13.04 42.99,-26.07 51.21,-1.4l5.12 59.6zm610.04 0l54.94 25.6c0.46,-27.93 0.93,-55.87 1.39,-83.81 -2.17,-13.04 -42.99,-26.07 -51.21,-1.4l-5.12 59.6zm-118.91 322.81c7.45,-103.05 14.9,-206.1 22.35,-309.15 237.92,130.37 475.84,260.73 713.75,391.1 17.28,7.32 26.02,15.65 24.68,25.14 -1.55,21.26 -3.1,42.52 -4.65,63.78 -252.04,-56.96 -504.08,-113.91 -756.12,-170.87z"/>
   <circle class="fil3 str0" cx="1301.73" cy="1301.73" r="1290.76"/>
  </g>
 </g>
</svg>
