<?xml version="1.0" encoding="UTF-8"?>
<!DOCTYPE svg PUBLIC "-//W3C//DTD SVG 1.1//EN" "http://www.w3.org/Graphics/SVG/1.1/DTD/svg11.dtd">
<!-- Creator: CorelDRAW 2020 (64-Bit) -->
<svg xmlns="http://www.w3.org/2000/svg" xml:space="preserve" width="83.7847mm" height="83.7847mm" version="1.1" style="shape-rendering:geometricPrecision; text-rendering:geometricPrecision; image-rendering:optimizeQuality; fill-rule:evenodd; clip-rule:evenodd"
viewBox="0 0 2601.17 2601.17"
 xmlns:xlink="http://www.w3.org/1999/xlink"
 xmlns:xodm="http://www.corel.com/coreldraw/odm/2003">
 <defs>
  <style type="text/css">
   <![CDATA[
    .str0 {stroke:#FEFEFE;stroke-width:21.91;stroke-miterlimit:22.9256}
    .fil4 {fill:none}
    .fil2 {fill:#FEFEFE}
    .fil0 {fill:#245237}
    .fil1 {fill:#DAD6C0}
    .fil3 {fill:#245237;fill-rule:nonzero}
   ]]>
  </style>
 </defs>
 <g id="Capa_x0020_1">
  <metadata id="CorelCorpID_0Corel-Layer"/>
  <g id="_2351343195232">
   <g>
    <path class="fil0" d="M1301.08 9.16c711.13,0 1287.61,576.48 1287.61,1287.61 0,711.13 -576.48,1287.61 -1287.61,1287.61 -711.13,0 -1287.61,-576.48 -1287.61,-1287.61 0,-711.13 576.48,-1287.61 1287.61,-1287.61zm0 119.09c645.36,0 1168.52,523.17 1168.52,1168.52 0,645.36 -523.17,1168.53 -1168.52,1168.53 -645.36,0 -1168.52,-523.17 -1168.52,-1168.53 0,-645.36 523.17,-1168.52 1168.52,-1168.52z"/>
    <path class="fil1" d="M1301.08 128.25c645.36,0 1168.52,523.17 1168.52,1168.52 0,645.36 -523.17,1168.53 -1168.52,1168.53 -645.36,0 -1168.52,-523.17 -1168.52,-1168.53 0,-645.36 523.17,-1168.52 1168.52,-1168.52z"/>
    <g>
     <path class="fil0" d="M925.21 605.86c98.86,0 179,80.14 179,179 0,49.58 -20.16,94.45 -52.73,126.87 0.29,1.27 0.59,2.55 0.85,3.88l56.14 20.05c-2.11,-11.68 -3.22,-23.7 -3.22,-35.98 0,-110.97 89.96,-200.92 200.92,-200.92 110.97,0 200.92,89.96 200.92,200.92 0,11.78 -1.02,23.32 -2.97,34.54l0.15 0.18c19.14,-6.27 38.27,-12.53 57.41,-18.79 -1.73,-3.09 -3.36,-6.16 -4.9,-9.21 -29.54,-31.92 -47.6,-74.62 -47.6,-121.54 0,-98.86 80.14,-179 179,-179 72.79,0 135.43,43.45 163.4,105.83 15.45,-137.71 246.46,-123.31 248.66,7.7 1.39,47.32 2.78,94.63 4.18,141.96 65.17,-33.96 183.68,4.03 183.68,87.67 0,230.32 0,437.68 0,668 0,58.08 -29.23,116.4 -63.66,150.3 -91.15,106.81 -182.3,213.62 -273.46,320.42 -37.22,29.43 -53.24,75.99 -54.28,134.64 1.04,52.54 2.08,105.07 3.13,157.61 -9.74,12.87 -19.48,25.75 -29.22,38.62 -150.99,-0.35 -301.99,-0.7 -452.98,-1.05 -9.04,-9.04 -18.09,-18.09 -27.14,-27.13 0.35,-85.59 0.7,-171.17 1.04,-256.76 -63.04,-156.1 -30.55,-287.49 67.84,-401.83 -2.78,-138.12 -5.57,-276.24 -8.35,-414.36 7.83,-46.44 82.98,-32.87 78.28,0 1.05,115.86 2.09,231.71 3.14,347.56 27.14,-16.35 54.27,-32.7 81.41,-49.05 -1.39,-92.54 -2.45,-163.19 -3.85,-255.73 20.48,-320.82 -594.02,-350.27 -612.86,-7.28 0.69,94.29 1.25,169.77 1.95,264.05 27.48,15.66 54.97,31.32 82.46,46.97 -1.39,-113.77 -2.79,-227.53 -4.18,-341.3 6.61,-47.32 78.98,-36.7 79.33,-4.17 -0.69,138.47 -1.39,276.94 -2.08,415.41 100.9,119.99 132.55,251.93 72.02,399.75 -1.05,82.1 -2.09,164.22 -3.13,246.32 -11.83,11.83 -23.66,23.66 -35.49,35.49 -148.91,1.04 -297.82,2.09 -446.72,3.13 -8.96,-12.19 -17.92,-24.37 -26.88,-36.56 -2.09,-68.88 -4.18,-137.77 -6.26,-206.66 -5.7,-37.07 -26.64,-69.05 -53.23,-99.15 -90.46,-102.98 -180.91,-205.96 -271.37,-308.95 -36.36,-43.23 -56.1,-92.44 -57.66,-148.2 0,-221.27 0,-442.54 0,-663.81 21.05,-117.77 161.09,-114.99 183.7,-91.86 1.05,-46.27 2.09,-92.55 3.13,-138.82 12.01,-141.08 238.49,-125.6 250.5,-24 1.69,-0.65 3.32,-1.17 4.92,-1.64 30.41,-55.48 89.34,-93.1 157.07,-93.1zm224.68 1732.35c-119.33,0.35 -238.67,0.7 -358.01,1.04 0,-50.1 0,-100.2 0,-150.3 -7.13,-77.23 -34.09,-109.59 -69.93,-153.43 -82.8,-96.03 -165.61,-192.05 -248.41,-288.07 -36.58,-36.25 -59.45,-82.39 -70.97,-136.73 0.35,-214.66 0.69,-429.32 1.04,-643.98 8.88,-52.53 100.2,-51.32 106.46,5.22 1.39,118.29 2.78,236.58 4.18,354.87 -87.04,50.01 -97.71,118.73 -42.8,203.53 95.67,110.63 191.34,221.27 287.02,331.91 35.14,36.7 85.93,-23.66 55.31,-60.54 -98.11,-111.33 -196.22,-222.66 -294.33,-333.99 -24.79,-43.23 41.75,-115.16 97.06,-61.58 58.8,63.32 117.6,126.64 176.4,189.96 45.23,24.7 90.45,49.41 135.69,74.11 154.29,73.85 254.17,179.76 252.59,345.48 -0.92,41.93 -43.28,94.79 -35.49,152.38 1.4,56.71 2.79,113.43 4.18,170.14zm314.34 0c119.34,0.35 238.67,0.7 358,1.04 0,-50.1 0,-100.2 0,-150.3 7.13,-77.23 34.1,-109.59 69.93,-153.43 82.81,-96.03 165.61,-192.05 248.41,-288.07 36.58,-36.25 59.45,-82.39 70.97,-136.73 -0.35,-214.66 -0.7,-429.32 -1.04,-643.98 -8.87,-52.53 -100.2,-51.32 -106.46,5.22 -1.39,118.29 -2.78,236.58 -4.18,354.87 87.04,50.01 97.71,118.73 42.79,203.53 -95.67,110.63 -191.35,221.27 -287.02,331.91 -35.14,36.7 -85.94,-23.66 -55.32,-60.54 98.11,-111.33 196.23,-222.66 294.33,-333.99 24.79,-43.23 -41.75,-115.16 -97.07,-61.58 -58.79,63.32 -117.59,126.64 -176.39,189.96 -45.23,24.7 -90.46,49.41 -135.68,74.11 -154.3,73.85 -254.17,179.76 -252.59,345.48 0.92,41.93 43.28,94.79 35.49,152.38 -1.39,56.71 -2.79,113.43 -4.18,170.14zm-739.47 -930.21l-2.09 -2.88 2.09 2.88zm-2.09 -2.88l-0.02 -0.02 0.02 0.02zm-0.02 -0.02c-24.36,-33.53 -50.13,-62.69 -79.83,-79.55 -0.52,-31.49 -1.05,-62.98 -1.56,-94.46 -1.73,-187.92 276.92,-355.86 512.47,-181.61 -132.45,46.33 -230.4,166.56 -231.2,291.07l-1.55 241.24c-48.32,-10.51 -99,-51.19 -120.03,-96.03 0,-97.76 0,-195.53 0,-293.29 -0.32,-37.15 -76.45,-42.21 -81.69,3.53l3.39 209.1zm1161.69 2.91l2.1 -2.91 -2.1 2.91zm2.1 -2.91l0 -0 0 0zm0 -0c24.37,-33.53 50.13,-62.69 79.83,-79.55 0.52,-31.49 1.04,-62.98 1.57,-94.46 1.72,-187.92 -276.92,-355.86 -512.48,-181.61 132.45,46.33 230.4,166.56 231.2,291.07l1.56 241.24c48.32,-10.51 99.01,-51.19 120.03,-96.03 0,-97.76 0,-195.53 0,-293.29 -2.08,-33.9 74.4,-45.93 81.68,3.54l-3.39 209.09zm32.86 -427.64c0.35,-79.67 0.7,-159.34 1.04,-239.01 3.31,-51.15 89.59,-62.1 105.42,-3.14 1.05,129.95 2.09,259.9 3.14,389.84 -23.88,-51.76 -50.72,-102.93 -109.6,-147.69zm-1224.3 0c-0.35,-79.67 -0.7,-159.34 -1.05,-239.01 -3.3,-51.15 -89.59,-62.1 -105.42,-3.14 -1.05,129.95 -2.09,259.9 -3.14,389.84 23.88,-51.76 50.72,-102.93 109.6,-147.69zm227.54 -300.08c58.22,0 105.41,47.2 105.41,105.42 0,58.22 -47.2,105.41 -105.41,105.41 -58.22,0 -105.42,-47.2 -105.42,-105.41 0,-58.22 47.2,-105.42 105.42,-105.42zm386.7 97.07c68.88,0 124.73,55.84 124.73,124.72 0,68.89 -55.85,124.73 -124.73,124.73 -68.88,0 -124.72,-55.84 -124.72,-124.73 0,-68.88 55.84,-124.72 124.72,-124.72zm379.4 -97.07c58.22,0 105.42,47.2 105.42,105.42 0,58.22 -47.2,105.41 -105.42,105.41 -58.22,0 -105.42,-47.2 -105.42,-105.41 0,-58.22 47.2,-105.42 105.42,-105.42z"/>
    </g>
    <g>
     <path class="fil2" d="M724.77 1408c-24.99,-34.75 -51.38,-65.11 -81.93,-82.45 -0.52,-31.49 -1.05,-62.97 -1.56,-94.46 -1.73,-187.92 276.92,-355.86 512.47,-181.61 -132.45,46.33 -230.4,166.57 -231.2,291.07l-1.55 241.24c-48.32,-10.51 -99.01,-51.19 -120.03,-96.02 0,-97.76 0,-195.52 0,-293.29 -4.43,-42.36 -78.56,-37.35 -81.69,3.53 2.09,69.93 1.32,139.98 3.41,209.91l2.08 2.1zm963.89 -730.63c58.22,0 105.42,47.2 105.42,105.42 0,58.22 -47.2,105.42 -105.42,105.42 -58.22,0 -105.42,-47.2 -105.42,-105.42 0,-58.22 47.2,-105.42 105.42,-105.42zm-538.77 1660.84c-119.33,0.34 -238.67,0.7 -358,1.04 0,-50.1 0,-100.2 0,-150.3 -7.13,-77.24 -34.09,-109.59 -69.93,-153.43 -82.8,-96.02 -165.61,-192.05 -248.41,-288.07 -36.58,-36.25 -59.45,-82.4 -70.97,-136.73 0.35,-214.66 0.7,-429.32 1.04,-643.98 8.87,-52.54 100.2,-51.32 106.46,5.22 1.39,118.29 2.78,236.58 4.18,354.87 -87.04,50.01 -97.7,118.73 -42.79,203.53 95.67,110.63 191.35,221.27 287.02,331.91 35.14,36.7 85.93,-23.66 55.32,-60.54 -98.11,-111.33 -196.22,-222.66 -294.33,-333.99 -24.79,-43.23 41.75,-115.16 97.07,-61.58 58.79,63.32 117.59,126.64 176.39,189.96 45.23,24.7 90.46,49.4 135.69,74.1 154.3,73.85 254.18,179.77 252.59,345.48 -0.92,41.93 -43.27,94.78 -35.49,152.38 1.4,56.71 2.79,113.43 4.18,170.14zm314.34 0c119.34,0.34 238.67,0.7 358,1.04 0,-50.1 0,-100.2 0,-150.3 7.13,-77.24 34.1,-109.59 69.93,-153.43 82.81,-96.02 165.61,-192.05 248.41,-288.07 36.58,-36.25 59.45,-82.4 70.97,-136.73 -0.34,-214.66 -0.69,-429.32 -1.04,-643.98 -8.87,-52.54 -100.2,-51.32 -106.46,5.22 -1.39,118.29 -2.78,236.58 -4.18,354.87 87.04,50.01 97.71,118.73 42.79,203.53 -95.67,110.63 -191.35,221.27 -287.02,331.91 -35.14,36.7 -85.93,-23.66 -55.32,-60.54 98.11,-111.33 196.22,-222.66 294.33,-333.99 24.79,-43.23 -41.75,-115.16 -97.06,-61.58 -58.8,63.32 -117.6,126.64 -176.39,189.96 -45.23,24.7 -90.46,49.4 -135.69,74.1 -154.3,73.85 -254.17,179.77 -252.59,345.48 0.92,41.93 43.28,94.78 35.49,152.38 -1.39,56.71 -2.79,113.43 -4.18,170.14zm420.12 -930.21c24.99,-34.75 51.38,-65.11 81.93,-82.45 0.52,-31.49 1.04,-62.97 1.56,-94.46 1.72,-187.92 -276.92,-355.86 -512.48,-181.61 132.45,46.33 230.4,166.57 231.2,291.07l1.55 241.24c48.32,-10.51 99.01,-51.19 120.03,-96.02 0,-97.76 -0,-195.52 -0,-293.29 4.43,-42.36 78.56,-37.35 81.69,3.53 -2.09,69.93 -1.33,139.98 -3.41,209.91l-2.08 2.1zm34.96 -430.55c0.35,-79.67 0.7,-159.34 1.04,-239.02 3.31,-51.14 89.59,-62.1 105.42,-3.13 1.05,129.95 2.09,259.89 3.13,389.84 -23.88,-51.76 -50.72,-102.93 -109.59,-147.69zm-1224.3 0c-0.35,-79.67 -0.7,-159.34 -1.05,-239.02 -3.3,-51.14 -89.59,-62.1 -105.42,-3.13 -1.05,129.95 -2.09,259.89 -3.14,389.84 23.88,-51.76 50.72,-102.93 109.6,-147.69zm227.54 -300.08c58.22,0 105.42,47.2 105.42,105.42 0,58.22 -47.2,105.42 -105.42,105.42 -58.22,0 -105.42,-47.2 -105.42,-105.42 0,-58.22 47.2,-105.42 105.42,-105.42zm386.7 97.07c68.88,0 124.73,55.84 124.73,124.73 0,68.88 -55.85,124.72 -124.73,124.72 -68.88,0 -124.72,-55.84 -124.72,-124.72 0,-68.88 55.84,-124.73 124.72,-124.73z"/>
    </g>
    <path class="fil3" d="M1119.2 186.48c15.27,0 28.52,2.53 39.77,7.59 11.25,5.06 19.93,12.29 26.03,21.69 6.11,9.4 9.16,20.45 9.16,33.14 0,12.69 -3.05,23.7 -9.16,33.02 -6.11,9.32 -14.78,16.51 -26.03,21.57 -11.25,5.06 -24.5,7.59 -39.77,7.59l-29.41 0 0 44.11 -47.73 0 0 -168.73 77.13 0zm-2.89 87.02c9.8,0 17.19,-2.13 22.18,-6.39 4.98,-4.26 7.47,-10.33 7.47,-18.2 0,-7.87 -2.49,-13.98 -7.47,-18.32 -4.98,-4.34 -12.37,-6.51 -22.18,-6.51l-26.51 0 0 49.41 26.51 0zm174.75 36.88l-26.03 0 0 44.83 -47.73 0 0 -168.73 77.13 0c15.27,0 28.52,2.53 39.77,7.59 11.25,5.06 19.93,12.29 26.03,21.69 6.11,9.4 9.16,20.45 9.16,33.14 0,12.21 -2.85,22.86 -8.56,31.94 -5.7,9.08 -13.86,16.19 -24.46,21.33l36.4 53.03 -51.1 0 -30.61 -44.83zm30.13 -61.46c0,-7.87 -2.49,-13.98 -7.47,-18.32 -4.98,-4.34 -12.37,-6.51 -22.18,-6.51l-26.51 0 0 49.41 26.51 0c9.8,0 17.19,-2.13 22.18,-6.39 4.98,-4.26 7.47,-10.33 7.47,-18.2zm235.01 -62.43l0 168.73 -47.73 0 0 -65.8 -65.08 0 0 65.8 -47.73 0 0 -168.73 47.73 0 0 63.39 65.08 0 0 -63.39 47.73 0zm-617.42 354.99l-71.35 0 -13.26 32.78 -48.69 0 74.48 -168.73 47 0 74.72 168.73 -49.65 0 -13.26 -32.78zm-13.98 -35.19l-21.69 -53.99 -21.69 53.99 43.39 0zm172.1 71.35c-17.67,0 -33.55,-3.73 -47.61,-11.21 -14.06,-7.47 -25.11,-17.88 -33.14,-31.22 -8.03,-13.34 -12.05,-28.44 -12.05,-45.31 0,-16.87 4.02,-31.98 12.05,-45.31 8.03,-13.34 19.08,-23.74 33.14,-31.22 14.06,-7.47 29.93,-11.21 47.61,-11.21 15.43,0 29.33,2.73 41.7,8.2 12.37,5.46 22.66,13.34 30.85,23.62l-30.37 27.48c-10.93,-13.18 -24.18,-19.76 -39.77,-19.76 -9.16,0 -17.32,2.01 -24.47,6.03 -7.15,4.02 -12.69,9.68 -16.63,16.99 -3.94,7.31 -5.9,15.71 -5.9,25.19 0,9.48 1.97,17.88 5.9,25.19 3.94,7.31 9.48,12.98 16.63,16.99 7.15,4.02 15.31,6.03 24.47,6.03 15.59,0 28.84,-6.59 39.77,-19.76l30.37 27.48c-8.2,10.29 -18.48,18.16 -30.85,23.62 -12.37,5.46 -26.27,8.2 -41.7,8.2zm128.23 -134.26l-51.82 0 0 -37.84 151.13 0 0 37.84 -51.58 0 0 130.89 -47.73 0 0 -130.89zm117.15 -37.84l47.73 0 0 168.73 -47.73 0 0 -168.73zm252.37 0l-72.31 168.73 -47 0 -72.07 -168.73 51.58 0 45.8 109.91 46.76 -109.91 47.24 0zm92.8 172.1c-17.84,0 -33.87,-3.78 -48.09,-11.33 -14.22,-7.55 -25.39,-18 -33.5,-31.33 -8.12,-13.34 -12.17,-28.36 -12.17,-45.08 0,-16.71 4.06,-31.74 12.17,-45.08 8.11,-13.34 19.28,-23.78 33.5,-31.33 14.22,-7.55 30.25,-11.33 48.09,-11.33 17.84,0 33.86,3.78 48.09,11.33 14.22,7.55 25.39,18 33.5,31.33 8.12,13.34 12.17,28.36 12.17,45.08 0,16.71 -4.06,31.74 -12.17,45.08 -8.12,13.34 -19.28,23.78 -33.5,31.33 -14.22,7.55 -30.25,11.33 -48.09,11.33zm0 -39.53c8.52,0 16.23,-2.01 23.14,-6.03 6.91,-4.02 12.37,-9.68 16.39,-16.99 4.02,-7.31 6.03,-15.71 6.03,-25.19 0,-9.48 -2.01,-17.88 -6.03,-25.19 -4.02,-7.31 -9.48,-12.98 -16.39,-16.99 -6.91,-4.02 -14.62,-6.03 -23.14,-6.03 -8.52,0 -16.23,2.01 -23.14,6.03 -6.91,4.02 -12.37,9.68 -16.39,16.99 -4.02,7.31 -6.03,15.71 -6.03,25.19 0,9.48 2.01,17.88 6.03,25.19 4.02,7.31 9.48,12.98 16.39,16.99 6.91,4.02 14.62,6.03 23.14,6.03z"/>
   </g>
   <path class="fil4 str0" d="M1300.58 10.95c712.24,0 1289.63,577.39 1289.63,1289.63 0,712.24 -577.39,1289.63 -1289.63,1289.63 -712.24,0 -1289.63,-577.39 -1289.63,-1289.63 0,-712.24 577.39,-1289.63 1289.63,-1289.63z"/>
  </g>
 </g>
</svg>
