<?xml version="1.0" encoding="UTF-8" standalone="no"?>
<!-- Created with Inkscape (http://www.inkscape.org/) -->

<svg
   width="78.878426mm"
   height="78.878426mm"
   viewBox="0 0 78.878426 78.878426"
   version="1.1"
   id="svg1"
   xml:space="preserve"
   inkscape:export-filename="aereo.svg"
   inkscape:export-xdpi="96"
   inkscape:export-ydpi="96"
   sodipodi:docname="estacion.svg"
   inkscape:version="1.3 (0e150ed, 2023-07-21)"
   xmlns:inkscape="http://www.inkscape.org/namespaces/inkscape"
   xmlns:sodipodi="http://sodipodi.sourceforge.net/DTD/sodipodi-0.dtd"
   xmlns="http://www.w3.org/2000/svg"
   xmlns:svg="http://www.w3.org/2000/svg"><sodipodi:namedview
     id="namedview1"
     pagecolor="#505050"
     bordercolor="#eeeeee"
     borderopacity="1"
     inkscape:showpageshadow="0"
     inkscape:pageopacity="0"
     inkscape:pagecheckerboard="0"
     inkscape:deskcolor="#505050"
     inkscape:document-units="mm"
     inkscape:zoom="0.79161912"
     inkscape:cx="149.06158"
     inkscape:cy="148.42997"
     inkscape:window-width="1680"
     inkscape:window-height="1022"
     inkscape:window-x="0"
     inkscape:window-y="28"
     inkscape:window-maximized="0"
     inkscape:current-layer="_2351448710592-0"><inkscape:page
       x="7.6449769e-21"
       y="2.6742655e-20"
       width="78.878426"
       height="78.878426"
       id="page2"
       margin="0"
       bleed="0" /></sodipodi:namedview><defs
     id="defs1"><style
       type="text/css"
       id="style1">&#10;   <![CDATA[
    .str1 {stroke:#FEFEFE;stroke-width:69.64;stroke-miterlimit:22.9256}
    .str0 {stroke:#D7CC75;stroke-width:7.52;stroke-miterlimit:22.9256}
    .fil4 {fill:none}
    .fil2 {fill:#FEFEFE}
    .fil0 {fill:#245237}
    .fil1 {fill:#887E4E}
    .fil3 {fill:#FEFEFE;fill-rule:nonzero}
   ]]>&#10;  </style><style
       type="text/css"
       id="style1-9">&#10;   <![CDATA[
    .str0 {stroke:#FEFEFE;stroke-width:61.15;stroke-miterlimit:22.9256}
    .fil3 {fill:none}
    .fil2 {fill:#FEFEFE}
    .fil0 {fill:#887E4E}
    .fil1 {fill:#DAD6C0}
   ]]>&#10;  </style></defs><g
     inkscape:groupmode="layer"
     id="layer20"
     inkscape:label="Capa 6"
     transform="translate(-9.7195535,-103.16964)"><g
       id="g13"
       transform="translate(-0.56899642,11.664427)"><g
         id="_2351448710592-0"
         style="clip-rule:evenodd;fill:#112b00;fill-rule:evenodd;image-rendering:optimizeQuality;shape-rendering:geometricPrecision;text-rendering:geometricPrecision"
         transform="matrix(0.01086313,0,0,0.01086313,-6.6282973,71.125084)">&#10;   &#10;   <circle
   class="fil3 str0"
   cx="5369.394"
   cy="5329.752"
   id="circle3-9"
   style="opacity:1;fill:#c8ab37;fill-opacity:1;fill-rule:nonzero;stroke:#fefefe;stroke-width:61.15;stroke-miterlimit:22.9256"
   r="3599.98"
   transform="rotate(1.9198142)" />&#10;  </g><g
         transform="matrix(0.02647648,0,0,-0.02647648,-233.61295,249.69913)"
         fill="#000000"
         stroke="none"
         id="g5-4"
         style="clip-rule:evenodd;fill:#ffffff;fill-rule:evenodd;image-rendering:optimizeQuality;shape-rendering:geometricPrecision;text-rendering:geometricPrecision"><g
           id="g12-1"
           transform="matrix(0.16807966,0,0,0.16807966,9658.1791,3624.3395)"
           style="fill:#ffffff"><g
             id="g10-6"
             style="fill:#ffffff"><path
               d="m 5528.0329,10383.356 c -721,-201.81 -1328,-371.331 -4015,-1122.0616 C 878.03286,9083.7022 256.03286,8909.6978 131.03286,8874.7175 l -227.999999,-63.6821 v -397.34 -396.4431 l 93,26.0109 c 252.999999,70.8575 296.999999,81.6207 310.999999,77.136 15,-5.3815 16,-378.5045 16,-4055.9181 V 14.841902 h 120 120 V 4103.9461 c 0,3260.341 3,4090.0014 13,4097.1769 6,4.4846 318,94.1776 692.00004,198.2215 670,186.5615 1379,384.783 3792,1059.2745 673,188.3553 1232,341.7304 1242,341.7304 11,0 498,-133.6426 1083,-296.8839 585,-163.2413 1875,-524.7041 2867.9991,-801.8555 l 1805,-504.0748 3,-4090.8983 2,-4091.794998 h 120 120 V 4059.0996 c 0,3282.7643 2,4046.0518 13,4053.2273 9,7.1754 62,-4.4847 197,-42.1558 l 185,-51.125 3,393.7524 c 1,217.0571 1,395.5462 0,397.34 -5,4.4847 -6396.9991,1788.4815 -6404.9991,1787.5845 -4,0 -350,-96.868 -768,-214.367 z"
               id="path1-1"
               style="fill:#ffffff;stroke-width:0.947064" /><path
               d="m 2356,5971 c -149,-49 -257,-175 -292,-340 -11,-56 -14,-494 -14,-2848 V 0 h 450 450 v 709 c 0,637 2,709 16,715 20,8 6948,8 6968,0 14,-6 16,-77 16,-705 V 20 h 440 440 v 2143 c 0,1408 -4,2164 -10,2205 -42,258 -228,424 -458,410 -109,-7 -180,-37 -256,-109 -68,-63 -115,-140 -143,-235 -16,-54 -18,-139 -23,-969 l -5,-910 H 6435 2935 l -5,1525 c -5,1446 -6,1528 -24,1580 -48,145 -125,237 -244,293 -87,41 -213,48 -306,18 z"
               id="path2-6"
               style="fill:#ffffff" /></g><path
             d="m 3817,5370 c -436,-54 -758,-484 -706,-947 25,-224 110,-397 271,-548 114,-107 233,-170 381,-202 100,-21 277,-13 372,17 222,70 400,225 502,435 66,137 85,224 86,385 1,148 -11,214 -63,347 -132,342 -485,557 -843,513 z"
             id="path3-33"
             style="fill:#ffffff" /><path
             d="m 5069,4754 c -100,-35 -182,-121 -231,-242 -23,-56 -23,-63 -26,-499 -2,-339 -6,-444 -16,-452 -8,-7 -241,-11 -697,-13 -675,-3 -685,-4 -741,-25 -112,-42 -190,-113 -237,-213 -23,-49 -26,-67 -26,-165 0,-100 3,-116 29,-172 49,-106 148,-186 273,-218 86,-23 1824,-22 1900,0 106,32 199,120 246,235 22,55 22,57 25,729 2,450 -1,692 -8,726 -14,68 -59,160 -103,211 -20,22 -64,56 -99,74 -56,30 -73,34 -153,37 -63,2 -104,-2 -136,-13 z"
             id="path4-5"
             style="fill:#ffffff" /><path
             d="M 5700,3750 V 2750 h 2015 2016 l -3,708 c -4,703 -4,707 -27,782 -74,245 -225,397 -476,481 l -70,24 -1727,3 -1728,2 z"
             id="path5-5"
             style="fill:#ffffff" /></g></g></g></g></svg>
