<?xml version="1.0" encoding="UTF-8"?>
<!DOCTYPE svg PUBLIC "-//W3C//DTD SVG 1.1//EN" "http://www.w3.org/Graphics/SVG/1.1/DTD/svg11.dtd">
<!-- Creator: CorelDRAW 2020 (64-Bit) -->
<svg xmlns="http://www.w3.org/2000/svg" xml:space="preserve" width="83.7847mm" height="83.7847mm" version="1.1" style="shape-rendering:geometricPrecision; text-rendering:geometricPrecision; image-rendering:optimizeQuality; fill-rule:evenodd; clip-rule:evenodd"
viewBox="0 0 7261.12 7261.12"
 xmlns:xlink="http://www.w3.org/1999/xlink"
 xmlns:xodm="http://www.corel.com/coreldraw/odm/2003">
 <defs>
  <style type="text/css">
   <![CDATA[
    .str0 {stroke:#FEFEFE;stroke-width:61.15;stroke-miterlimit:22.9256}
    .fil3 {fill:none}
    .fil2 {fill:#FEFEFE}
    .fil0 {fill:#887E4E}
    .fil1 {fill:#DAD6C0}
   ]]>
  </style>
 </defs>
 <g id="Capa_x0020_1">
  <metadata id="CorelCorpID_0Corel-Layer"/>
  <g id="_2351448710592">
   <g>
    <path class="fil0" d="M3621.85 25.57c1985.1,0 3594.34,1609.24 3594.34,3594.34 0,1985.1 -1609.24,3594.35 -3594.34,3594.35 -1985.1,0 -3594.35,-1609.25 -3594.35,-3594.35 0,-1985.1 1609.25,-3594.34 3594.35,-3594.34zm0 332.43c1801.5,0 3261.91,1460.41 3261.91,3261.91 0,1801.51 -1460.41,3261.92 -3261.91,3261.92 -1801.51,0 -3261.92,-1460.41 -3261.92,-3261.92 0,-1801.5 1460.41,-3261.91 3261.92,-3261.91z"/>
    <circle class="fil1" cx="3621.84" cy="3619.92" r="3261.92"/>
    <path class="fil2" d="M1214.43 3572.03c9.04,-37.14 -21.87,-49.85 -32.73,-49.88 -100.17,-0.26 -200.32,-0.55 -300.48,-0.81 898.55,-762.48 1797.1,-1524.96 2695.65,-2287.44 896.14,759.76 1792.28,1519.52 2688.43,2279.28 -94.14,1.2 -188.28,2.41 -282.42,3.62 -44.55,5.9 -57.5,37.71 -57.93,66.98 -3.63,563.02 -7.25,1126.05 -10.88,1689.07 -26.89,298.15 -162.59,491.19 -474.32,514.15 -1217.79,7.24 -2435.58,14.48 -3653.37,21.73 -351.01,5.36 -521.61,-184 -568.46,-506.92 -1.2,-593.19 -2.29,-1136.6 -3.48,-1729.79zm1215.33 1959.52l2288.32 0 0 -188.28 -2288.32 0 0 188.28zm-2.05 -1087.27l2284.72 0 0 557.61 -2284.72 0 0 -557.61zm-258.65 1087.27l152.06 0 0 -279.28 2509.97 0 0 279.28 152.06 0 0 -1798.65c0,-16.95 -13.86,-30.8 -30.8,-30.8l-92.31 0c-15.92,0 -28.95,13.04 -28.95,28.96l0 456.7 -2509.97 0 0 -791.55c0,-16.96 -13.86,-30.8 -30.8,-30.8l-92.31 0c-15.92,0 -28.95,13.03 -28.95,28.95l0 2137.19zm152.06 -431.34l0 -760.37 2509.97 0 0 760.37 -2509.97 0zm-279.13 432.78c-81.61,-2.26 -163.23,-4.52 -244.85,-6.79 -174.49,-35.12 -236.53,-124.77 -251.65,-237.16 0.6,-546.73 1.2,-1093.47 1.79,-1640.2 675.88,-560.02 1351.74,-1120.04 2027.62,-1680.05 677.09,560.61 1354.17,1121.23 2031.26,1681.85 -1.81,533.46 -3.62,1066.92 -5.43,1600.38 -5.69,178.85 -76.98,279.79 -237.16,275.18 -89.91,-0.61 -179.83,-1.21 -269.74,-1.81 3.62,-600.45 7.24,-1200.89 10.86,-1801.34 3.93,-153.27 -356.95,-222.38 -398.29,7.24 1.21,114.06 2.42,228.12 3.62,342.17 -760.36,0.61 -1520.74,1.2 -2281.1,1.81 0.9,-241.09 1.73,-460.45 2.63,-701.55 -4.52,-112.25 -325.32,-187.01 -388.25,-10.85 -0.43,723.71 -0.88,1447.42 -1.31,2171.12zm-617.72 -1934.8l2150.75 -1791.38 2141.68 1780.52c2.41,525 4.82,1050.01 7.23,1575.01 13.94,299.27 -97.21,471.36 -372.94,476.14 -1185.21,-1.21 -2370.41,-2.42 -3555.61,-3.63 -267.06,-17.84 -361.8,-172.21 -372.93,-392.86l1.83 -1643.81z"/>
    <path class="fil0" d="M2639.57 4605.81l389.68 0c102.93,0 187.15,84.22 187.15,187.16l0 0c0,102.93 -84.22,187.15 -187.15,187.15l-389.68 0c-102.94,0 -187.16,-84.22 -187.16,-187.15l0 0c0,-102.94 84.22,-187.16 187.16,-187.16zm-1531.09 -985.32c-136.38,0 -272.77,0 -409.14,0 -43.82,-6.82 -42.99,-64.68 1.8,-97.76 954.68,-811.66 1909.36,-1623.32 2864.03,-2434.97 963.12,810.46 1926.25,1620.91 2889.37,2431.36 43.76,26.25 46.77,113.15 -45.26,114.06 -124.31,0 -248.63,0 -372.94,0 -1.2,567.25 -2.42,1134.51 -3.62,1701.76 -37.69,359.36 -233.87,557.92 -604.67,579.32 -1247.96,0 -2495.92,0 -3743.89,-0.01 -357.13,-36.56 -550.49,-264.55 -568.46,-553.97 -2.4,-579.93 -4.81,-1159.86 -7.22,-1739.79zm315.8 -22.31l2150.75 -1791.38 2141.68 1780.52c2.41,525 4.82,1050.01 7.23,1575.01 13.94,299.27 -97.21,471.36 -372.94,476.14 -1185.21,-1.21 -2370.41,-2.42 -3555.61,-3.63 -267.06,-17.84 -361.8,-172.21 -372.93,-392.86l1.83 -1643.81zm1003.44 846.09l2284.72 0 0 557.61 -2284.72 0 0 -557.61zm-258.65 1087.27l152.06 0 0 -279.28 2509.97 0 0 279.28 152.06 0 0 -1798.65c0,-16.95 -13.86,-30.8 -30.8,-30.8l-92.31 0c-15.92,0 -28.95,13.04 -28.95,28.96l0 456.7 -2509.97 0 0 -791.55c0,-16.96 -13.86,-30.8 -30.8,-30.8l-92.31 0c-15.92,0 -28.95,13.03 -28.95,28.95l0 2137.19zm152.06 -431.34l0 -760.37 2509.97 0 0 760.37 -2509.97 0zm108.63 431.34l2288.32 0 0 -188.28 -2288.32 0 0 188.28zm-387.76 1.44c-81.61,-2.26 -163.23,-4.52 -244.85,-6.79 -174.49,-35.12 -236.53,-124.77 -251.65,-237.16 0.6,-546.73 1.2,-1093.47 1.79,-1640.2 675.88,-560.02 1351.74,-1120.04 2027.62,-1680.05 677.09,560.61 1354.17,1121.23 2031.26,1681.85 -1.81,533.46 -3.62,1066.92 -5.43,1600.38 -5.69,178.85 -76.98,279.79 -237.16,275.18 -89.91,-0.61 -179.83,-1.21 -269.74,-1.81 3.62,-600.45 7.24,-1200.89 10.86,-1801.34 3.93,-153.27 -356.95,-222.38 -398.29,7.24 1.21,114.06 2.42,228.12 3.62,342.17 -760.36,0.61 -1520.74,1.2 -2281.1,1.81 0.9,-241.09 1.73,-460.45 2.63,-701.55 -4.52,-112.25 -325.32,-187.01 -388.25,-10.85 -0.43,723.71 -0.88,1447.42 -1.31,2171.12zm-827.57 -1960.96c9.04,-37.14 -21.87,-49.85 -32.73,-49.88 -100.17,-0.26 -200.32,-0.55 -300.48,-0.81 898.55,-762.48 1797.1,-1524.96 2695.65,-2287.44 896.14,759.76 1792.28,1519.52 2688.43,2279.28 -94.14,1.2 -188.28,2.41 -282.42,3.62 -44.55,5.9 -57.5,37.71 -57.93,66.98 -3.63,563.02 -7.25,1126.05 -10.88,1689.07 -26.89,298.15 -162.59,491.19 -474.32,514.15 -1217.79,7.24 -2435.58,14.48 -3653.37,21.73 -351.01,5.36 -521.61,-184 -568.46,-506.92 -1.2,-593.19 -2.29,-1136.6 -3.48,-1729.79zm1428.76 110.47l389.68 0c102.93,0 187.15,84.22 187.15,187.16l0 0c0,102.93 -84.22,187.15 -187.15,187.15l-389.68 0c-102.94,0 -187.16,-84.22 -187.16,-187.15l0 0c0,-102.94 84.22,-187.16 187.16,-187.16zm14.48 76.04l360.7 0c61.12,0 111.13,50.01 111.13,111.12l0 0c0,61.12 -50.01,111.12 -111.13,111.12l-360.7 0c-61.11,0 -111.11,-50.01 -111.11,-111.12l0 0c0,-61.12 50.01,-111.12 111.11,-111.12zm-3.61 923.31l360.7 0c61.12,0 111.12,50.01 111.12,111.12l0 0c0,61.12 -50.01,111.12 -111.12,111.12l-360.7 0c-61.12,0 -111.12,-50.01 -111.12,-111.12l0 0c0,-61.12 50.01,-111.12 111.12,-111.12z"/>
   </g>
   <circle class="fil3 str0" cx="3630.56" cy="3630.56" r="3599.98"/>
  </g>
 </g>
</svg>
