<?xml version="1.0" encoding="UTF-8"?>
<!DOCTYPE svg PUBLIC "-//W3C//DTD SVG 1.1//EN" "http://www.w3.org/Graphics/SVG/1.1/DTD/svg11.dtd">
<!-- Creator: CorelDRAW 2020 (64-Bit) -->
<svg xmlns="http://www.w3.org/2000/svg" xml:space="preserve" width="83.7847mm" height="83.7847mm" version="1.1" style="shape-rendering:geometricPrecision; text-rendering:geometricPrecision; image-rendering:optimizeQuality; fill-rule:evenodd; clip-rule:evenodd"
viewBox="0 0 8302.65 8302.65"
 xmlns:xlink="http://www.w3.org/1999/xlink"
 xmlns:xodm="http://www.corel.com/coreldraw/odm/2003">
 <defs>
  <style type="text/css">
   <![CDATA[
    .str0 {stroke:#FEFEFE;stroke-width:69.92;stroke-miterlimit:22.9256}
    .fil3 {fill:none}
    .fil2 {fill:#FEFEFE}
    .fil0 {fill:#AD3335}
    .fil1 {fill:#DAD6C0}
   ]]>
  </style>
 </defs>
 <g id="Capa_x0020_1">
  <metadata id="CorelCorpID_0Corel-Layer"/>
  <g id="_2351343228352">
   <g>
    <path class="fil0" d="M4140.68 11.28c2269.84,0 4109.91,1840.08 4109.91,4109.92 0,2269.84 -1840.07,4109.92 -4109.91,4109.92 -2269.84,0 -4109.92,-1840.08 -4109.92,-4109.92 0,-2269.84 1840.08,-4109.92 4109.92,-4109.92zm0 380.12c2059.91,0 3729.8,1669.89 3729.8,3729.8 0,2059.91 -1669.89,3729.8 -3729.8,3729.8 -2059.92,0 -3729.81,-1669.89 -3729.81,-3729.8 0,-2059.91 1669.89,-3729.8 3729.81,-3729.8z"/>
    <circle class="fil1" cx="4140.68" cy="4121.2" r="3729.8"/>
    <path class="fil0" d="M5393.31 4503.46l-3859.36 0 -75.32 0 0 -746.14 3973.57 0 0 746.14 -38.89 0zm1170.1 425.69l259.66 379.9 845.2 0 0 490.94 -996.75 0 -432.28 0 -5603.05 0c-86.08,0 -156.54,-70.46 -156.54,-156.55l0 -0.01c0,-86.1 70.45,-156.55 156.54,-156.55l843.79 0 -321.79 -824.68c-43.63,-74.4 9.07,-150.74 66.97,-156.87 16.59,-4.05 33.49,-5.28 50.08,-3.88l25.98 0 -7.29 -764.27c-0.57,-60.9 49.83,-110.72 110.73,-110.72l571.1 0 0 -968.9c0,-106.63 87.23,-193.87 193.88,-193.87l941.22 0c106.64,0 193.87,87.24 193.87,193.87l0 968.9 219.08 0 0 -968.9c0,-106.63 87.23,-193.87 193.87,-193.87l941.23 0c106.64,0 193.87,87.24 193.87,193.87l0 968.9 590.31 0c60.91,0 110.92,49.83 110.73,110.72l-2.43 767.93 1074.81 -2.44c69.87,7.6 99.23,24.8 71.08,112.83l-133.88 313.66zm105.64 379.9l-171.9 -251.47 -129.75 251.47 301.65 0z"/>
    <path class="fil2" d="M2180.43 2651.54l928.38 0 0 986.71 -928.38 0 0 -986.71zm-493.36 2932.43l-192.02 -429.16 4787.17 0.75 -186.91 428.41 -4408.25 0zm-275.89 -579.9l-134.85 -370.12 5266.61 -15.5 -176.97 385.69 -4954.78 -0.07zm47.45 -1246.74l3973.58 0 0 746.12 -3973.58 0 0 -746.12zm2257.77 -1105.79l928.39 0 0 986.71 -928.39 0 0 -986.71z"/>
   </g>
   <circle class="fil3 str0" cx="4151.33" cy="4151.33" r="4116.37"/>
  </g>
 </g>
</svg>
