<?xml version="1.0" encoding="UTF-8"?>
<!DOCTYPE svg PUBLIC "-//W3C//DTD SVG 1.1//EN" "http://www.w3.org/Graphics/SVG/1.1/DTD/svg11.dtd">
<!-- Creator: CorelDRAW 2020 (64-Bit) -->
<svg xmlns="http://www.w3.org/2000/svg" xml:space="preserve" width="83.7847mm" height="83.7847mm" version="1.1" style="shape-rendering:geometricPrecision; text-rendering:geometricPrecision; image-rendering:optimizeQuality; fill-rule:evenodd; clip-rule:evenodd"
viewBox="0 0 7264.2 7264.2"
 xmlns:xlink="http://www.w3.org/1999/xlink"
 xmlns:xodm="http://www.corel.com/coreldraw/odm/2003">
 <defs>
  <style type="text/css">
   <![CDATA[
    .str0 {stroke:#FEFEFE;stroke-width:61.18;stroke-miterlimit:22.9256}
    .fil3 {fill:none}
    .fil2 {fill:#FEFEFE}
    .fil0 {fill:#AD3335}
    .fil1 {fill:#DAD6C0}
   ]]>
  </style>
 </defs>
 <g id="Capa_x0020_1">
  <metadata id="CorelCorpID_0Corel-Layer"/>
  <g id="_2351335606176">
   <g>
    <path class="fil0" d="M3625.16 9.87c1985.94,0 3595.86,1609.93 3595.86,3595.87 0,1985.94 -1609.92,3595.87 -3595.86,3595.87 -1985.94,0 -3595.87,-1609.93 -3595.87,-3595.87 0,-1985.94 1609.93,-3595.87 3595.87,-3595.87zm0 332.58c1802.27,0 3263.3,1461.03 3263.3,3263.3 0,1802.27 -1461.03,3263.3 -3263.3,3263.3 -1802.28,0 -3263.31,-1461.03 -3263.31,-3263.3 0,-1802.27 1461.03,-3263.3 3263.31,-3263.3z"/>
    <circle class="fil1" cx="3625.16" cy="3605.74" r="3263.3"/>
    <path class="fil2" d="M3493.17 822.42c250.98,0 454.44,203.46 454.44,454.44 0,250.99 -203.46,454.45 -454.44,454.45 -250.98,0 -454.44,-203.46 -454.44,-454.45 0,-250.98 203.46,-454.44 454.44,-454.44zm1009.85 5090.94c-216.94,-452.73 -455.65,-939.47 -672.6,-1392.22 -43.54,-99.77 -87.08,-199.55 -130.63,-299.32 149.56,-35 238.18,-138.31 268.02,-307.52 302.05,592.29 625.87,1218.6 927.92,1810.88 114,159.33 -182.89,480.55 -392.7,188.17zm-649.39 -3262.37c1.8,-150.57 3.62,-301.15 5.44,-451.71 1.36,-325.63 -655.8,-471.67 -726.54,2.71 -5.45,859.88 -10.89,1719.76 -16.34,2579.64 -255.78,308.39 -511.59,616.79 -767.37,925.18 -159.25,236.95 162.82,401.36 299.32,302.03 286.63,-331.97 573.26,-663.96 859.89,-995.93 29.46,-34.39 42.19,-69.95 46.25,-106.13 0,-263.5 -0.01,-526.99 -0.01,-790.49 148.14,-7.25 320.39,-125.98 307.48,-333.33 -2.73,-139.69 -5.44,-279.38 -8.17,-419.07 -130.61,-69.84 -261.24,-139.67 -391.85,-209.51 -58.12,-42.36 -96.09,-90.05 -119.73,-141.5 -45.36,-119.96 -90.71,-239.91 -136.06,-359.87 -30.16,-73.24 90.72,-100.91 111.57,-40.13 45.57,109.06 91.15,218.13 136.72,327.2 19.17,44.78 49.76,80.41 87.07,106.13 200.91,105.22 401.82,210.44 602.74,315.66 302.51,77.1 330.16,-262.14 136.05,-323.82 -141.04,-72.12 -282.1,-144.22 -423.13,-216.34 -58.32,-47.43 -106.77,-102.25 -136.06,-171.43 -62.59,-142.86 -125.17,-285.71 -187.77,-428.57 -29.03,-62.13 99.1,-103.17 125.18,-43.53 65.11,157.6 130.22,315.21 195.34,472.81z"/>
    <path class="fil0" d="M3493.17 680.9c329.14,0 595.96,266.82 595.96,595.96 0,250.95 -155.12,465.64 -374.68,553.5 167.58,74.48 296.49,217.16 294.38,368.93 -4.99,179.14 -16.77,377.32 -21.75,556.45 139.22,71.19 279.79,136.95 419.02,208.14 245.37,148.76 60.72,638.62 -272.16,517.99 -34.47,-17.24 -102.9,-61.97 -137.37,-79.2l0.68 272.14c337.42,663.95 691.85,1335.38 1029.27,1999.34 139.7,414.52 -395.47,635.85 -634.03,329.26 -232.2,-472.57 -464.4,-945.13 -696.61,-1417.69 1.81,113.37 3.62,226.74 5.44,340.12 -2.26,78.47 -18.64,104.93 -76.19,174.16 -299.32,333.8 -598.65,667.59 -897.98,1001.39 -297.51,210.45 -717.48,-142.4 -508.85,-462.57 251.25,-289.35 502.51,-578.68 753.77,-868.03 8.17,-852.62 16.34,-1705.26 24.5,-2557.88 12.81,-192.81 143.06,-326.99 262.62,-387.79 -212.82,-90.96 -361.98,-302.16 -361.98,-548.24 0,-329.13 266.83,-595.96 595.96,-595.96zm1009.85 5232.45c-216.94,-452.73 -455.65,-939.47 -672.6,-1392.22 -43.54,-99.77 -87.08,-199.55 -130.63,-299.32 149.56,-35 238.18,-138.31 268.02,-307.52 302.05,592.29 625.87,1218.6 927.92,1810.88 114,159.33 -182.89,480.55 -392.7,188.17zm-649.39 -3262.37c1.8,-150.57 3.62,-301.15 5.44,-451.71 1.36,-325.63 -655.8,-471.67 -726.54,2.71 -5.45,859.88 -10.89,1719.76 -16.34,2579.64 -255.78,308.39 -511.59,616.79 -767.37,925.18 -159.25,236.95 162.82,401.36 299.32,302.03 286.63,-331.97 573.26,-663.96 859.89,-995.93 29.46,-34.39 42.19,-69.95 46.25,-106.13 0,-263.5 -0.01,-526.99 -0.01,-790.49 148.14,-7.25 320.39,-125.98 307.48,-333.33 -2.73,-139.69 -5.44,-279.38 -8.17,-419.07 -130.61,-69.84 -261.24,-139.67 -391.85,-209.51 -58.12,-42.36 -96.09,-90.05 -119.73,-141.5 -45.36,-119.96 -90.71,-239.91 -136.06,-359.87 -30.16,-73.24 90.72,-100.91 111.57,-40.13 45.57,109.06 91.15,218.13 136.72,327.2 19.17,44.78 49.76,80.41 87.07,106.13 200.91,105.22 401.82,210.44 602.74,315.66 302.51,77.1 330.16,-262.14 136.05,-323.82 -141.04,-72.12 -282.1,-144.22 -423.13,-216.34 -58.32,-47.43 -106.77,-102.25 -136.06,-171.43 -62.59,-142.86 -125.17,-285.71 -187.77,-428.57 -29.03,-62.13 99.1,-103.17 125.18,-43.53 65.11,157.6 130.22,315.21 195.34,472.81zm-360.46 -1828.57c250.98,0 454.44,203.46 454.44,454.44 0,250.99 -203.46,454.45 -454.44,454.45 -250.98,0 -454.44,-203.46 -454.44,-454.45 0,-250.98 203.46,-454.44 454.44,-454.44z"/>
   </g>
   <circle class="fil3 str0" cx="3632.1" cy="3632.1" r="3601.51"/>
  </g>
 </g>
</svg>
